<svg xmlns="http://www.w3.org/2000/svg" viewBox="0 0 428.13 102"><defs><style>.cls-1{fill:#231f20;}.cls-2{fill:#2bace2;}</style></defs><title>Asset 10</title><g id="Layer_2" data-name="Layer 2"><g id="Layer_1-2" data-name="Layer 1"><path class="cls-1" d="M130.88,34.21l0,.06a.2.2,0,0,0,0-.07Z"/><path class="cls-1" d="M193.36,76.45l.14.13a.08.08,0,0,1,0,0Z"/><path class="cls-1" d="M340.19,91.42V33.6h13.23V91.42Z"/><path class="cls-2" d="M340.19,31.51v-5.2a2.89,2.89,0,0,1,2.89-2.89h7.46a2.9,2.9,0,0,1,2.89,2.89h0v5.2Z"/><polygon class="cls-1" points="353.42 93.52 349.1 99.14 349.09 99.13 348.59 99.77 346.88 102 345.13 99.77 344.63 99.14 340.19 93.52 353.42 93.52"/><path class="cls-1" d="M428.13,56.33v35l-.45.08a11,11,0,0,1-3.62,0,11.15,11.15,0,0,1-9.31-10.2V61.72q0-11.41-2.8-15.16t-9.85-3.73a19.25,19.25,0,0,0-8.26,1.71,13.78,13.78,0,0,0-5.66,4.79,13.19,13.19,0,0,0-2,5.34,65.66,65.66,0,0,0-.58,10.4V81.62a11.15,11.15,0,0,1-9.33,9.79,11.07,11.07,0,0,1-3.51,0l-.38-.07V33.6h12.44v9.45a25.06,25.06,0,0,1,9.32-8.72,28.48,28.48,0,0,1,13-2.74,26.82,26.82,0,0,1,11,2,16,16,0,0,1,7.1,6.06,16.83,16.83,0,0,1,2.2,5.54A62.69,62.69,0,0,1,428.13,56.33Z"/><path class="cls-1" d="M249.09,33.6V43a17.33,17.33,0,0,0-7.35-8.5,25.44,25.44,0,0,0-30.9,5.55q-7.2,8.52-7.19,22.36,0,14.58,7,23T230,93.8A22,22,0,0,0,249,84l.08-.12v.37a11.16,11.16,0,0,0,7.74,7.13h5.49V33.6Zm-4.14,43A14.4,14.4,0,0,1,233.33,82q-7.56,0-11.71-5t-4.14-14.21q0-9.14,4.29-14.3t11.81-5.15q7.46,0,11.66,5t4.19,14Q249.43,71.16,245,76.59Z"/><path class="cls-1" d="M188.5,73.73h0a11.18,11.18,0,0,0-10.29,2.55l0,0c-.22.23-.45.46-.67.67l-.06.06a16,16,0,0,1-2.5,1.94,19.69,19.69,0,0,1-10.67,2.69q-7.19,0-11.53-4.55t-4.82-12.65H191.3a4.23,4.23,0,0,0,2.81-3.22c0-.64,0-1.26-.06-1.88q-.66-12.54-7.74-19.8-7.78-8-21.77-8-13.35,0-21.86,8.75t-8.51,22.37q0,14.15,8.23,22.62t22.14,8.49a34.92,34.92,0,0,0,12.52-2.18,27.91,27.91,0,0,0,4.37-2.1A33.64,33.64,0,0,0,193.5,76.58l-.14-.13A11.19,11.19,0,0,0,188.5,73.73ZM154.3,46q4-3.16,10.49-3.17,6.89,0,10.85,3.26t4.76,9.49H148.75Q150.33,49.14,154.3,46Z"/><path class="cls-1" d="M130.86,34.2a.2.2,0,0,1,0,.07v0a11,11,0,0,1-1.71,4A11.11,11.11,0,0,1,120,43.17h-.06a11.17,11.17,0,0,1-1.54-.11H118q-6.58,0-9.45,5.28T105.69,66V81.4a11.14,11.14,0,0,1-8.86,10H92.46V33.48h13.23v9.33A21.28,21.28,0,0,1,109.53,36a12.57,12.57,0,0,1,1.8-1.71A13.68,13.68,0,0,1,120,31.59a22.85,22.85,0,0,1,5.52.67A27.33,27.33,0,0,1,130.86,34.2Z"/><path class="cls-1" d="M24.31,22.74q-9.18,9.39-9.18,24.33,0,14.45,8.93,23.84t22.54,9.4a40.82,40.82,0,0,0,13.52-2.22l.06,0c.51-.17,1-.36,1.52-.55a11,11,0,0,1,3-.41,11.15,11.15,0,0,1,10.75,8.18v.16A42.83,42.83,0,0,1,62.7,91.73a50.87,50.87,0,0,1-7.9,1.65,50.13,50.13,0,0,1-7,.43,52.31,52.31,0,0,1-18.93-3.36,44.57,44.57,0,0,1-25.32-25A49.1,49.1,0,0,1,0,47,48.57,48.57,0,0,1,3.51,28.51,44.58,44.58,0,0,1,13.66,13.35a44.85,44.85,0,0,1,15.24-10A50.48,50.48,0,0,1,47.54,0a47.77,47.77,0,0,1,8.28.68,47.26,47.26,0,0,1,6.72,1.61A52.47,52.47,0,0,1,76.38,9.21v.12A11.15,11.15,0,0,1,66,16.51a11.4,11.4,0,0,1-3.32-.5l-.08,0-.86-.32-.08,0a40,40,0,0,0-13.49-2.28Q33.48,13.35,24.31,22.74Z"/><path class="cls-1" d="M327.37,31.47l-.43,1.19-7.51,20.83L305,93.5H293.64l-14.16-40-7.4-20.89-.4-1.14H277a11,11,0,0,1,6.52,2.12,3.17,3.17,0,0,1,.69.53c.06.06.13.11.19.18a4,4,0,0,1,.84,1.26c.05.13.1.26.14.39l2.72,7.67,11.31,31.92,11.42-31.77h0l2.55-7.71v0l.09-.25a.83.83,0,0,1,.08-.22,4.11,4.11,0,0,1,.9-1.34h0a4,4,0,0,1,1.11-.8l0,0a11.87,11.87,0,0,1,6.32-1.91Z"/></g></g></svg>